#N canvas 0 37 1920 1018 12;
#X obj 280 160 print netreceive-output;
#X obj 142 257 route list;
#X msg 142 120 listen 3001;
#X obj 142 162 netreceive -u -b;
#X obj 142 307 route wind;
#X obj 142 200 oscparse;
#X obj 142 357 print wind;
#X connect 1 0 4 0;
#X connect 2 0 3 0;
#X connect 3 0 5 0;
#X connect 4 0 6 0;
#X connect 5 0 1 0;
