#N canvas 1920 64 1920 991 12;
#X obj 300 0 cnv 15 199 159 empty empty empty 20 12 0 14 #e0e0e0 #404040
0;
#X obj 1270 100 cnv 15 443 601 empty empty empty 20 12 0 14 #e0e0e0
#404040 0;
#X obj 200 170 cnv 15 1030 392 empty empty empty 20 12 0 14 #e0e0e0
#404040 0;
#X obj 20 170 cnv 15 171 402 empty empty empty 20 12 0 14 #e0e0e0 #404040
0;
#X obj 160 630 cnv 15 513 264 empty empty empty 20 12 0 14 #e0e0e0
#404040 0;
#X obj 40 200 bng 15 250 50 0 empty empty empty 17 7 0 10 #fcfcfc #000000
#000000;
#X obj 320 180 route list;
#X msg 320 60 listen 3001;
#X obj 320 90 netreceive -u -b;
#X obj 332 850 dac~;
#X obj 540 241 route Rennes;
#N canvas 512 144 1276 350 distri 0;
#X obj 160 0 inlet;
#X obj 90 70 route wind_kph;
#X obj 250 70 route humidity;
#X obj 370 70 route temp_c;
#X obj 490 70 route precip_mm;
#X obj 610 70 route pressure_mb;
#X obj 750 70 route wind_dir;
#X text 690 30 wind_kph humidity temp_c precip_mm pressure_mb wind_dir
;
#X floatatom 90 100 5 0 0 0 - - -, f 5;
#X floatatom 250 100 5 0 0 0 - - -, f 5;
#X floatatom 370 100 5 0 0 0 - - -, f 5;
#X floatatom 490 100 5 0 0 0 - - -, f 5;
#X floatatom 610 100 5 0 0 0 - - -, f 5;
#X symbolatom 750 160 10 0 0 0 - - -, f 10;
#X obj 740 120 symbol;
#X obj 80 140 outlet;
#X obj 250 130 outlet;
#X obj 370 130 outlet;
#X obj 490 130 outlet;
#X obj 610 130 outlet;
#X obj 750 190 outlet;
#X connect 0 0 1 0;
#X connect 0 0 2 0;
#X connect 0 0 3 0;
#X connect 0 0 6 0;
#X connect 0 0 5 0;
#X connect 0 0 4 0;
#X connect 1 0 8 0;
#X connect 2 0 9 0;
#X connect 3 0 10 0;
#X connect 4 0 11 0;
#X connect 5 0 12 0;
#X connect 6 0 14 0;
#X connect 8 0 15 0;
#X connect 9 0 16 0;
#X connect 10 0 17 0;
#X connect 11 0 18 0;
#X connect 12 0 19 0;
#X connect 13 0 20 0;
#X connect 14 0 13 0;
#X restore 290 271 pd distri;
#X floatatom 230 321 5 0 0 0 - - -, f 5;
#X floatatom 270 321 5 0 0 0 - - -, f 5;
#X floatatom 310 321 5 0 0 0 - - -, f 5;
#X floatatom 350 321 5 0 0 0 - - -, f 5;
#X floatatom 390 321 5 0 0 0 - - -, f 5;
#X symbolatom 430 321 5 0 0 0 - - -, f 5;
#N canvas 512 144 1276 350 distri 0;
#X obj 160 0 inlet;
#X obj 90 70 route wind_kph;
#X obj 250 70 route humidity;
#X obj 370 70 route temp_c;
#X obj 490 70 route precip_mm;
#X obj 610 70 route pressure_mb;
#X obj 750 70 route wind_dir;
#X text 690 30 wind_kph humidity temp_c precip_mm pressure_mb wind_dir
;
#X floatatom 90 100 5 0 0 0 - - -, f 5;
#X floatatom 250 100 5 0 0 0 - - -, f 5;
#X floatatom 370 100 5 0 0 0 - - -, f 5;
#X floatatom 490 100 5 0 0 0 - - -, f 5;
#X floatatom 610 100 5 0 0 0 - - -, f 5;
#X symbolatom 750 160 10 0 0 0 - - -, f 10;
#X obj 740 120 symbol;
#X obj 80 140 outlet;
#X obj 250 130 outlet;
#X obj 370 130 outlet;
#X obj 490 130 outlet;
#X obj 610 130 outlet;
#X obj 750 190 outlet;
#X connect 0 0 1 0;
#X connect 0 0 2 0;
#X connect 0 0 3 0;
#X connect 0 0 6 0;
#X connect 0 0 5 0;
#X connect 0 0 4 0;
#X connect 1 0 8 0;
#X connect 2 0 9 0;
#X connect 3 0 10 0;
#X connect 4 0 11 0;
#X connect 5 0 12 0;
#X connect 6 0 14 0;
#X connect 8 0 15 0;
#X connect 9 0 16 0;
#X connect 10 0 17 0;
#X connect 11 0 18 0;
#X connect 12 0 19 0;
#X connect 13 0 20 0;
#X connect 14 0 13 0;
#X restore 540 271 pd distri;
#X floatatom 480 321 5 0 0 0 - - -, f 5;
#X floatatom 520 321 5 0 0 0 - - -, f 5;
#X floatatom 560 321 5 0 0 0 - - -, f 5;
#X floatatom 600 321 5 0 0 0 - - -, f 5;
#X floatatom 640 321 5 0 0 0 - - -, f 5;
#X symbolatom 680 321 5 0 0 0 - - -, f 5;
#N canvas 512 144 1276 350 distri 0;
#X obj 160 0 inlet;
#X obj 90 70 route wind_kph;
#X obj 250 70 route humidity;
#X obj 370 70 route temp_c;
#X obj 490 70 route precip_mm;
#X obj 610 70 route pressure_mb;
#X obj 750 70 route wind_dir;
#X text 690 30 wind_kph humidity temp_c precip_mm pressure_mb wind_dir
;
#X floatatom 90 100 5 0 0 0 - - -, f 5;
#X floatatom 250 100 5 0 0 0 - - -, f 5;
#X floatatom 370 100 5 0 0 0 - - -, f 5;
#X floatatom 490 100 5 0 0 0 - - -, f 5;
#X floatatom 610 100 5 0 0 0 - - -, f 5;
#X symbolatom 750 160 10 0 0 0 - - -, f 10;
#X obj 740 120 symbol;
#X obj 80 140 outlet;
#X obj 250 130 outlet;
#X obj 370 130 outlet;
#X obj 490 130 outlet;
#X obj 610 130 outlet;
#X obj 750 190 outlet;
#X connect 0 0 1 0;
#X connect 0 0 2 0;
#X connect 0 0 3 0;
#X connect 0 0 6 0;
#X connect 0 0 5 0;
#X connect 0 0 4 0;
#X connect 1 0 8 0;
#X connect 2 0 9 0;
#X connect 3 0 10 0;
#X connect 4 0 11 0;
#X connect 5 0 12 0;
#X connect 6 0 14 0;
#X connect 8 0 15 0;
#X connect 9 0 16 0;
#X connect 10 0 17 0;
#X connect 11 0 18 0;
#X connect 12 0 19 0;
#X connect 13 0 20 0;
#X connect 14 0 13 0;
#X restore 790 271 pd distri;
#X floatatom 730 321 5 0 0 0 - - -, f 5;
#X floatatom 770 321 5 0 0 0 - - -, f 5;
#X floatatom 810 321 5 0 0 0 - - -, f 5;
#X floatatom 850 321 5 0 0 0 - - -, f 5;
#X floatatom 890 321 5 0 0 0 - - -, f 5;
#X symbolatom 930 321 5 0 0 0 - - -, f 5;
#N canvas 512 144 1276 350 distri 0;
#X obj 160 0 inlet;
#X obj 90 70 route wind_kph;
#X obj 250 70 route humidity;
#X obj 370 70 route temp_c;
#X obj 490 70 route precip_mm;
#X obj 610 70 route pressure_mb;
#X obj 750 70 route wind_dir;
#X text 690 30 wind_kph humidity temp_c precip_mm pressure_mb wind_dir
;
#X floatatom 90 100 5 0 0 0 - - -, f 5;
#X floatatom 250 100 5 0 0 0 - - -, f 5;
#X floatatom 370 100 5 0 0 0 - - -, f 5;
#X floatatom 490 100 5 0 0 0 - - -, f 5;
#X floatatom 610 100 5 0 0 0 - - -, f 5;
#X symbolatom 750 160 10 0 0 0 - - -, f 10;
#X obj 740 120 symbol;
#X obj 80 140 outlet;
#X obj 250 130 outlet;
#X obj 370 130 outlet;
#X obj 490 130 outlet;
#X obj 610 130 outlet;
#X obj 750 190 outlet;
#X connect 0 0 1 0;
#X connect 0 0 2 0;
#X connect 0 0 3 0;
#X connect 0 0 6 0;
#X connect 0 0 5 0;
#X connect 0 0 4 0;
#X connect 1 0 8 0;
#X connect 2 0 9 0;
#X connect 3 0 10 0;
#X connect 4 0 11 0;
#X connect 5 0 12 0;
#X connect 6 0 14 0;
#X connect 8 0 15 0;
#X connect 9 0 16 0;
#X connect 10 0 17 0;
#X connect 11 0 18 0;
#X connect 12 0 19 0;
#X connect 13 0 20 0;
#X connect 14 0 13 0;
#X restore 1040 271 pd distri;
#X floatatom 980 321 5 0 0 0 - - -, f 5;
#X floatatom 1020 321 5 0 0 0 - - -, f 5;
#X floatatom 1060 321 5 0 0 0 - - -, f 5;
#X floatatom 1100 321 5 0 0 0 - - -, f 5;
#X floatatom 1140 321 5 0 0 0 - - -, f 5;
#X symbolatom 1180 321 4 0 0 0 - - -, f 4;
#N canvas 1920 64 1920 991 idees 0;
#X obj 60 20 cnv 15 500 300 empty empty empty 20 12 0 14 #e0e0e0 #404040
0;
#X obj 60 350 cnv 15 500 300 empty empty empty 20 12 0 14 #e0e0e0 #404040
0;
#X obj 580 350 cnv 15 500 300 empty empty empty 20 12 0 14 #e0e0e0
#404040 0;
#X obj 410 80 cnv 15 5 200 empty empty empty 20 12 0 14 #000000 #404040
0;
#X text 280 90 Vitesse du vent;
#X text 280 120 humidité;
#X text 280 150 température;
#X text 280 180 précipitation;
#X text 280 210 pression;
#X text 280 240 direction du vent;
#X text 430 90 Vitesse du vent;
#X text 430 120 humidité;
#X text 430 150 température;
#X text 430 180 précipitation;
#X text 430 210 pression;
#X text 430 240 direction du vent;
#X obj 90 90 cnv 15 5 200 empty empty empty 20 12 0 14 #000000 #404040
0;
#X text 220 210 Ambitus;
#X text 70 40 On peut ou pas tout écouter ensemble;
#X text 140 90 Vitesse de l'arpège;
#X text 230 150 timbre;
#X text 210 180 Plik plik;
#X text 230 120 timbre;
#X text 160 240 Choix des notes;
#X text 80 400 Vents O = C;
#X text 80 430 Vents E = G;
#X text 80 460 Vents N = Am;
#X text 80 490 Vents S = F;
#X text 80 370 Choix des notes = différentes triades - Direction VENTS
;
#X text 600 370 Vitesse métronome = Vitesse du vent;
#X text 610 410 Echelle;
#X text 620 440 Vent : 0 à 100;
#X text 620 470 Métro : 70 à 1500;
#X text 370 30 Paramètres météo;
#X text 70 66 Paramètres musicaux;
#X restore 60 40 pd idees;
#X obj 40 360 osc~;
#X obj 120 360 line;
#X obj 40 400 *~;
#X msg 40 240 0 \, 1 100;
#X msg 120 300 1 \, 0 100;
#X obj 120 240 del 200;
#X msg 40 330 440;
#X obj 454 371 muzville;
#X obj 454 351 tgl 15 0 empty empty empty 17 7 0 10 #fcfcfc #000000
#000000 1 1;
#X obj 704 371 muzville;
#X obj 704 351 tgl 15 0 empty empty empty 17 7 0 10 #fcfcfc #000000
#000000 1 1;
#X obj 204 371 muzville;
#X obj 204 351 tgl 15 0 empty empty empty 17 7 0 10 #fcfcfc #000000
#000000 1 1;
#X obj 40 300 loadbang;
#X obj 332 800 *~ 0.05;
#X obj 320 120 oscparse;
#X obj 218 470 send~ vannes;
#X obj 954 371 muzville;
#X obj 954 351 tgl 15 0 empty empty empty 17 7 0 10 #fcfcfc #000000
#000000 1 1;
#X obj 40 460 send~ receivedata;
#X obj 272 720 +~;
#X obj 412 720 +~;
#X obj 332 750 +~;
#X obj 790 240 route Lannion;
#X obj 290 240 route Lorient;
#X obj 390 240 print Lorient;
#X obj 1040 240 route Quimper;
#X obj 172 670 receive~ vannes;
#X obj 290 670 receive~ rennes;
#X obj 412 670 receive~ morlaix;
#X obj 542 670 receive~ lorient;
#X obj 392 750 receive~ receivedata;
#X obj 320 30 loadbang;
#X obj 218 410 r selectSynth;
#X obj 1300 246 vradio 20 0 0 5 empty empty empty 0 -8 0 10 #fcfcfc
#000000 #000000 0;
#X text 1325 266 synthStrings;
#X text 1324 286 FMfull;
#X text 1324 306 waveSynth;
#X text 1325 246 off;
#X obj 468 410 r selectSynth;
#X obj 718 410 r selectSynth;
#X obj 968 410 r selectSynth;
#X obj 468 470 send~ rennes;
#X obj 718 470 send~ Lannion;
#X obj 968 470 send~ lorient;
#X obj 218 440 synths;
#X obj 468 440 synths;
#X obj 1300 190 loadbang;
#X text 1300 170 Sélection du synthé;
#X text 1325 327 uglySynth;
#X obj 718 440 synths;
#X obj 968 440 synths;
#X obj 1460 270 vradio 15 1 0 4 empty empty empty 0 -8 0 10 #fcfcfc
#000000 #000000 0;
#X text 1480 266 sine;
#X text 1479 286 triangle;
#X text 1479 306 sawtooth;
#X text 1480 326 square;
#X obj 1460 360 s waveSynthOptions;
#X obj 1300 360 s selectSynth;
#X text 1460 240 options de waveSynth;
#X text 1460 440 options de uglySynth;
#X obj 1480 514 tgl 15 0 empty empty empty 17 7 0 10 #fcfcfc #000000
#000000 1 1;
#X obj 1513 514 hradio 15 1 0 2 empty empty empty 0 -8 0 10 #fcfcfc
#000000 #000000 1;
#X text 1511 486 mode;
#X text 1461 489 harmo;
#X text 1553 469 detune (mode 2), f 9;
#X floatatom 1547 511 5 0 0 0 - - -, f 5;
#X obj 1480 550 pack i i i;
#X obj 1480 590 s uglySynthOptions;
#X obj 1570 550 bng 15 250 50 0 empty empty empty 17 7 0 10 #fcfcfc
#000000 #000000;
#X floatatom 400 800 5 0 0.1 0 - - -, f 5;
#X obj 1300 520 vsl 15 128 0 0.1 0 0 empty empty empty 0 -9 0 10 #fcfcfc
#000000 #000000 9650 1;
#X msg 1300 490 0.05;
#X obj 1300 460 loadbang;
#X obj 1300 670 s volume;
#X obj 450 800 r volume;
#X text 1300 440 volume général;
#X msg 1300 220 1;
#X text 370 640 Mixage;
#X text 0 130 signal de réception des données;
#X text 550 180 routing des données et génération des valeurs midi
;
#X text 1440 120 paramètres;
#X text 310 0 réception des données OSC;
#X connect 5 0 43 0;
#X connect 5 0 45 0;
#X connect 6 0 10 0;
#X connect 6 0 63 0;
#X connect 6 0 64 0;
#X connect 6 0 66 0;
#X connect 7 0 8 0;
#X connect 8 0 5 0;
#X connect 8 0 55 0;
#X connect 10 0 18 0;
#X connect 11 0 12 0;
#X connect 11 1 13 0;
#X connect 11 2 14 0;
#X connect 11 3 15 0;
#X connect 11 4 16 0;
#X connect 11 5 17 0;
#X connect 12 0 51 1;
#X connect 17 0 51 2;
#X connect 18 0 19 0;
#X connect 18 1 20 0;
#X connect 18 2 21 0;
#X connect 18 3 22 0;
#X connect 18 4 23 0;
#X connect 18 5 24 0;
#X connect 19 0 47 1;
#X connect 24 0 47 2;
#X connect 25 0 26 0;
#X connect 25 1 27 0;
#X connect 25 2 28 0;
#X connect 25 3 29 0;
#X connect 25 4 30 0;
#X connect 25 5 31 0;
#X connect 26 0 49 1;
#X connect 31 0 49 2;
#X connect 32 0 33 0;
#X connect 32 1 34 0;
#X connect 32 2 35 0;
#X connect 32 3 36 0;
#X connect 32 4 37 0;
#X connect 32 5 38 0;
#X connect 33 0 57 1;
#X connect 38 0 57 2;
#X connect 40 0 42 0;
#X connect 41 0 42 1;
#X connect 42 0 59 0;
#X connect 43 0 41 0;
#X connect 44 0 41 0;
#X connect 45 0 44 0;
#X connect 46 0 40 0;
#X connect 47 1 86 1;
#X connect 48 0 47 0;
#X connect 49 1 90 1;
#X connect 50 0 49 0;
#X connect 51 1 85 1;
#X connect 52 0 51 0;
#X connect 53 0 46 0;
#X connect 54 0 9 0;
#X connect 54 0 9 1;
#X connect 55 0 6 0;
#X connect 57 1 91 1;
#X connect 58 0 57 0;
#X connect 60 0 62 0;
#X connect 61 0 62 1;
#X connect 62 0 54 0;
#X connect 63 0 25 0;
#X connect 64 0 11 0;
#X connect 64 0 65 0;
#X connect 66 0 32 0;
#X connect 67 0 60 0;
#X connect 68 0 60 1;
#X connect 69 0 61 0;
#X connect 70 0 61 1;
#X connect 71 0 54 0;
#X connect 72 0 7 0;
#X connect 73 0 85 0;
#X connect 74 0 98 0;
#X connect 79 0 86 0;
#X connect 80 0 90 0;
#X connect 81 0 91 0;
#X connect 85 0 56 0;
#X connect 86 0 82 0;
#X connect 87 0 117 0;
#X connect 90 0 83 0;
#X connect 91 0 84 0;
#X connect 92 0 97 0;
#X connect 101 0 107 0;
#X connect 102 0 107 1;
#X connect 102 0 109 0;
#X connect 106 0 107 2;
#X connect 106 0 109 0;
#X connect 107 0 108 0;
#X connect 109 0 107 0;
#X connect 110 0 54 1;
#X connect 111 0 114 0;
#X connect 112 0 111 0;
#X connect 113 0 112 0;
#X connect 115 0 110 0;
#X connect 117 0 74 0;
