#N canvas 562 273 780 430 10;
#X obj 180 120 osc~;
#X obj 180 10 inlet;
#X obj 160 180 *~ 0.1;
#X obj 170 220 *~;
#X obj 150 40 bng 15 250 50 0 empty empty empty 17 7 0 10 #fcfcfc #000000
#000000;
#X obj 80 160 line;
#X obj 130 80 del 200;
#X obj 170 260 outlet~;
#X msg 50 110 0 \, 1 100;
#X msg 110 110 1 \, 0 2000;
#X obj 250 20 gemhead;
#X floatatom 280 70 5 0 0 0 - - -, f 5;
#X floatatom 320 80 5 0 0 0 - - -, f 5;
#X obj 250 280 sphere 0 55;
#X obj 320 220 line;
#X msg 290 170 0 \, 1 100;
#X obj 350 140 del 200;
#X msg 350 170 1 \, 0 100;
#X floatatom 210 50 5 0 0 0 - - -, f 5;
#X obj 290 40 translateXYZ;
#X floatatom 310 10 5 0 0 0 - - -, f 5;
#X obj 550 110 / 220;
#X obj 540 80 - 440;
#X obj 550 135 * 8;
#X obj 550 170 - 4;
#X obj 390 220 colorRGB 0 0.5 0 1;
#X connect 0 0 2 0;
#X connect 1 0 4 0;
#X connect 1 0 0 0;
#X connect 1 0 18 0;
#X connect 2 0 3 0;
#X connect 3 0 7 0;
#X connect 4 0 8 0;
#X connect 4 0 6 0;
#X connect 4 0 15 0;
#X connect 4 0 16 0;
#X connect 5 0 3 1;
#X connect 6 0 9 0;
#X connect 8 0 5 0;
#X connect 9 0 5 0;
#X connect 10 0 19 0;
#X connect 11 0 13 1;
#X connect 12 0 13 2;
#X connect 14 0 13 1;
#X connect 15 0 14 0;
#X connect 16 0 17 0;
#X connect 17 0 14 0;
#X connect 18 0 22 0;
#X connect 18 0 25 1;
#X connect 18 0 25 4;
#X connect 19 0 25 0;
#X connect 20 0 19 1;
#X connect 21 0 23 0;
#X connect 22 0 21 0;
#X connect 23 0 24 0;
#X connect 24 0 20 0;
#X connect 25 0 13 0;
