#N canvas 2236 367 1440 727 10;
#X obj 362 82 inlet;
#X obj 758 638 osc~;
#X obj 222 162 metro 1000;
#X obj 172 242 i;
#X obj 182 272 + 1;
#X obj 170 310 mod 3;
#X obj 242 122 tgl 22 0 empty empty empty 17 7 0 10 #fcfcfc #000000
#000000 1 1;
#X obj 232 232 bng 15 250 50 0 empty empty empty 17 7 0 10 #fcfcfc
#000000 #000000;
#X floatatom 180 340 5 0 0 0 - - -, f 5;
#X obj 122 442 sel 0 1 2;
#X obj 758 617 mtof;
#X obj 390 360 line;
#X msg 232 322 0 \, 1 100;
#X msg 322 322 1 \, 0 100;
#X obj 710 830 outlet~;
#X obj 252 442 sel 0 1 2;
#X msg 272 482 83;
#X msg 312 482 86;
#X obj 392 442 sel 0 1 2;
#X text 152 422 C;
#X text 282 412 G;
#X msg 232 482 77;
#X msg 102 482 72;
#X msg 142 482 76;
#X msg 182 482 79;
#X text 402 412 F;
#X msg 372 482 77;
#X msg 412 482 81;
#X msg 452 482 84;
#X obj 532 452 sel 0 1 2;
#X text 552 422 Am;
#X msg 512 492 69;
#X msg 552 492 72;
#X msg 592 492 76;
#X obj 890 630 osc~;
#X obj 890 610 mtof;
#X obj 1040 620 osc~;
#X obj 1040 600 mtof;
#X obj 1160 630 osc~;
#X obj 1160 610 mtof;
#X obj 780 680 *~;
#X obj 810 570 tgl 15 0 empty empty empty 17 7 0 10 #fcfcfc #000000
#000000 1 1;
#X obj 840 680 *~;
#X obj 930 570 tgl 15 0 empty empty empty 17 7 0 10 #fcfcfc #000000
#000000 0 1;
#X obj 1050 680 *~;
#X obj 1090 550 tgl 19 0 empty empty empty 17 7 0 10 #fcfcfc #000000
#000000 0 1;
#X obj 1180 670 *~;
#X obj 1200 560 tgl 15 0 empty empty empty 17 7 0 10 #fcfcfc #000000
#000000 0 1;
#X text 662 222 metro de 70 à 1500;
#X obj 362 212 * 1430;
#X obj 362 232 + 70;
#X obj 362 182 expr pow((1-$f1) \, 4);
#X floatatom 362 132 5 0 0 0 - - -, f 5;
#X obj 942 82 inlet;
#X symbolatom 842 272 10 0 0 0 - - -, f 10;
#X obj 862 212 symbol;
#X obj 932 422 bng 25 250 50 0 empty empty empty 17 7 0 10 #fcfcfc
#000000 #000000;
#X msg 942 362 N;
#X msg 982 362 E;
#X msg 1022 362 S;
#X msg 1062 362 O;
#X obj 972 422 bng 25 250 50 0 empty empty empty 17 7 0 10 #fcfcfc
#000000 #000000;
#X obj 1012 422 bng 25 250 50 0 empty empty empty 17 7 0 10 #fcfcfc
#000000 #000000;
#X obj 1052 422 bng 25 250 50 0 empty empty empty 17 7 0 10 #fcfcfc
#000000 #000000;
#X msg 862 172 SSO;
#X msg 812 462 1;
#X msg 852 462 0;
#X msg 892 462 1;
#X msg 932 462 0;
#X msg 982 462 1;
#X msg 1022 462 0;
#X msg 1062 462 1;
#X msg 1102 462 0;
#X obj 242 82 inlet;
#X obj 942 312 sel N NNE NE ENE E ESE SE SSE S SSW SW WSW W WNW NW
NNW;
#X text 662 202 force du vent 0 à 50;
#X obj 360 160 / 50;
#X obj 1080 770 outlet;
#X obj 760 590 spigot;
#X obj 890 590 spigot;
#X obj 1040 580 spigot;
#X obj 1150 590 spigot;
#X text 152 422 C;
#X text 282 412 G;
#X text 402 412 F;
#X text 552 422 Am;
#X text 810 650 C;
#X text 940 640 G;
#X text 1060 640 F;
#X text 1210 650 Am;
#X obj 710 770 *~;
#X obj 312 292 del 200;
#X connect 0 0 52 0;
#X connect 1 0 40 0;
#X connect 2 0 7 0;
#X connect 3 0 4 0;
#X connect 4 0 3 1;
#X connect 4 0 5 0;
#X connect 5 0 8 0;
#X connect 6 0 2 0;
#X connect 7 0 3 0;
#X connect 7 0 12 0;
#X connect 7 0 91 0;
#X connect 8 0 15 0;
#X connect 8 0 29 0;
#X connect 8 0 18 0;
#X connect 8 0 9 0;
#X connect 9 0 22 0;
#X connect 9 1 23 0;
#X connect 9 2 24 0;
#X connect 10 0 1 0;
#X connect 11 0 90 1;
#X connect 12 0 11 0;
#X connect 13 0 11 0;
#X connect 15 0 21 0;
#X connect 15 1 16 0;
#X connect 15 2 17 0;
#X connect 16 0 79 0;
#X connect 17 0 79 0;
#X connect 18 0 26 0;
#X connect 18 1 27 0;
#X connect 18 2 28 0;
#X connect 21 0 79 0;
#X connect 22 0 78 0;
#X connect 23 0 78 0;
#X connect 24 0 78 0;
#X connect 26 0 80 0;
#X connect 27 0 80 0;
#X connect 28 0 80 0;
#X connect 29 0 31 0;
#X connect 29 1 32 0;
#X connect 29 2 33 0;
#X connect 31 0 81 0;
#X connect 32 0 81 0;
#X connect 33 0 81 0;
#X connect 34 0 42 0;
#X connect 35 0 34 0;
#X connect 36 0 44 0;
#X connect 37 0 36 0;
#X connect 38 0 46 0;
#X connect 39 0 38 0;
#X connect 40 0 90 0;
#X connect 41 0 40 1;
#X connect 41 0 78 1;
#X connect 42 0 90 0;
#X connect 43 0 42 1;
#X connect 43 0 79 1;
#X connect 44 0 90 0;
#X connect 45 0 44 1;
#X connect 45 0 80 1;
#X connect 46 0 90 0;
#X connect 47 0 46 1;
#X connect 47 0 81 1;
#X connect 49 0 50 0;
#X connect 50 0 2 1;
#X connect 51 0 49 0;
#X connect 52 0 76 0;
#X connect 53 0 74 0;
#X connect 54 0 74 0;
#X connect 55 0 54 0;
#X connect 56 0 66 0;
#X connect 56 0 65 0;
#X connect 57 0 56 0;
#X connect 58 0 61 0;
#X connect 59 0 62 0;
#X connect 60 0 63 0;
#X connect 61 0 68 0;
#X connect 61 0 67 0;
#X connect 62 0 69 0;
#X connect 62 0 70 0;
#X connect 63 0 71 0;
#X connect 63 0 72 0;
#X connect 64 0 55 0;
#X connect 65 0 47 0;
#X connect 66 0 45 0;
#X connect 66 0 41 0;
#X connect 66 0 43 0;
#X connect 67 0 43 0;
#X connect 68 0 45 0;
#X connect 68 0 47 0;
#X connect 68 0 41 0;
#X connect 69 0 45 0;
#X connect 70 0 43 0;
#X connect 70 0 41 0;
#X connect 70 0 47 0;
#X connect 71 0 41 0;
#X connect 72 0 45 0;
#X connect 72 0 43 0;
#X connect 72 0 47 0;
#X connect 73 0 6 0;
#X connect 74 0 57 0;
#X connect 74 1 57 0;
#X connect 74 2 57 0;
#X connect 74 3 57 0;
#X connect 74 4 58 0;
#X connect 74 5 58 0;
#X connect 74 6 58 0;
#X connect 74 7 58 0;
#X connect 74 8 59 0;
#X connect 74 9 59 0;
#X connect 74 10 59 0;
#X connect 74 11 59 0;
#X connect 74 12 60 0;
#X connect 74 13 60 0;
#X connect 74 14 60 0;
#X connect 74 15 60 0;
#X connect 76 0 51 0;
#X connect 78 0 10 0;
#X connect 78 0 77 0;
#X connect 79 0 35 0;
#X connect 79 0 77 0;
#X connect 80 0 37 0;
#X connect 80 0 77 0;
#X connect 81 0 39 0;
#X connect 81 0 77 0;
#X connect 90 0 14 0;
#X connect 91 0 13 0;
