#N canvas 688 383 450 300 12;
#X obj 103 300 outlet~;
#X obj 108 21 inlet;
#X obj 111 71 mtof;
#N canvas 814 248 450 451 voicesynth 0;
#X obj 69 154 inlet;
#X floatatom 113 181 5 0 0 0 - - - 0;
#X obj 102 262 phasor~;
#X obj 101 325 expr~ $v1 > $v2;
#X obj 198 263 *~ 0.4;
#X obj 198 287 +~ 0.5;
#X obj 203 239 osc~ 2.1;
#X obj 114 200 sig~;
#X obj 114 221 +~;
#X obj 166 170 osc~ 5;
#X obj 161 195 *~ 3;
#X obj 109 371 outlet~;
#X obj 229 90 loadbang;
#X obj 229 114 random 1000;
#X obj 229 138 * 0.002;
#X obj 229 162 + 1;
#X obj 148 61 loadbang;
#X obj 148 85 random 1000;
#X obj 148 133 + 1;
#X obj 148 109 * 0.005;
#X connect 0 0 1 0;
#X connect 1 0 7 0;
#X connect 2 0 3 0;
#X connect 3 0 11 0;
#X connect 4 0 5 0;
#X connect 5 0 3 1;
#X connect 6 0 4 0;
#X connect 7 0 8 0;
#X connect 8 0 2 0;
#X connect 9 0 10 0;
#X connect 10 0 8 1;
#X connect 12 0 13 0;
#X connect 13 0 14 0;
#X connect 14 0 15 0;
#X connect 15 0 6 0;
#X connect 16 0 17 0;
#X connect 17 0 19 0;
#X connect 18 0 9 0;
#X connect 19 0 18 0;
#X restore 101 177 pd voicesynth;
#X obj 110 43 unpack i i;
#X obj 107 238 *~, f 8;
#N canvas 208 208 450 300 att_rel_env 0;
#X obj 126 24 inlet;
#X obj 126 44 sel 0;
#X msg 126 65 0;
#X obj 153 65 / 127;
#X obj 153 86 pack 0 400;
#X floatatom 210 68 5 0 0 0 - - - 0;
#X floatatom 183 108 5 0 0 0 - - - 0;
#X text 246 66 attack time;
#X text 215 109 release time;
#X obj 126 145 line~;
#X obj 114 179 *~;
#X obj 126 126 pack 0 2000;
#X obj 114 198 outlet~;
#X connect 0 0 1 0;
#X connect 1 0 2 0;
#X connect 1 1 3 0;
#X connect 2 0 11 0;
#X connect 3 0 4 0;
#X connect 4 0 9 0;
#X connect 5 0 4 1;
#X connect 6 0 11 1;
#X connect 9 0 10 0;
#X connect 9 0 10 1;
#X connect 10 0 12 0;
#X connect 11 0 9 0;
#X restore 313 174 pd att_rel_env;
#X obj 65 218 * 10;
#X obj 103 278 lop~ 5000;
#X obj 185 144 * 1.004;
#N canvas 814 248 450 451 voicesynth 0;
#X obj 69 154 inlet;
#X floatatom 113 181 5 0 0 0 - - - 0;
#X obj 102 262 phasor~;
#X obj 101 325 expr~ $v1 > $v2;
#X obj 198 263 *~ 0.4;
#X obj 198 287 +~ 0.5;
#X obj 203 239 osc~ 2.1;
#X obj 114 200 sig~;
#X obj 114 221 +~;
#X obj 166 170 osc~ 5;
#X obj 161 195 *~ 3;
#X obj 109 371 outlet~;
#X obj 229 90 loadbang;
#X obj 229 114 random 1000;
#X obj 229 138 * 0.002;
#X obj 229 162 + 1;
#X obj 148 61 loadbang;
#X obj 148 85 random 1000;
#X obj 148 133 + 1;
#X obj 148 109 * 0.005;
#X connect 0 0 1 0;
#X connect 1 0 7 0;
#X connect 2 0 3 0;
#X connect 3 0 11 0;
#X connect 4 0 5 0;
#X connect 5 0 3 1;
#X connect 6 0 4 0;
#X connect 7 0 8 0;
#X connect 8 0 2 0;
#X connect 9 0 10 0;
#X connect 10 0 8 1;
#X connect 12 0 13 0;
#X connect 13 0 14 0;
#X connect 14 0 15 0;
#X connect 15 0 6 0;
#X connect 16 0 17 0;
#X connect 17 0 19 0;
#X connect 18 0 9 0;
#X connect 19 0 18 0;
#X restore 200 177 pd voicesynth;
#X connect 1 0 4 0;
#X connect 2 0 3 0;
#X connect 2 0 7 0;
#X connect 2 0 9 0;
#X connect 3 0 5 0;
#X connect 4 0 2 0;
#X connect 4 1 6 0;
#X connect 5 0 8 0;
#X connect 6 0 5 1;
#X connect 7 0 8 1;
#X connect 8 0 0 0;
#X connect 9 0 10 0;
#X connect 10 0 5 0;
