#N canvas 78 78 1025 470 12;
#N canvas 234 234 450 300 env 0;
#X obj 104 177 line~;
#X obj 116 54 bng 15 250 50 0 empty empty empty 17 7 0 10 #fcfcfc #000000
#000000;
#X obj 154 99 del 10;
#X obj 154 124 pack 0 500;
#X obj 104 202 *~;
#X obj 104 222 *~;
#X obj 116 34 inlet;
#X obj 215 58 inlet;
#X floatatom 215 79 5 0 0 0 - - - 0;
#X text 253 79 decay time;
#X obj 79 101 pack 1 3;
#X obj 104 244 outlet~;
#X connect 0 0 4 1;
#X connect 0 0 4 0;
#X connect 1 0 2 0;
#X connect 1 0 10 0;
#X connect 2 0 3 0;
#X connect 3 0 0 0;
#X connect 4 0 5 0;
#X connect 4 0 5 1;
#X connect 5 0 11 0;
#X connect 6 0 1 0;
#X connect 7 0 8 0;
#X connect 8 0 3 1;
#X connect 10 0 0 0;
#X restore 476 200 pd env;
#X f 7;
#N canvas 668 278 671 461 synthfm2 0;
#X obj 157 391 outlet~;
#X obj 205 314 osc~;
#X floatatom 150 119 5 0 0 0 - - - 0;
#X obj 237 224 osc~ 40;
#X obj 160 280 +~;
#X text 146 100 freq;
#X text 371 181 mod index;
#X floatatom 281 91 5 0 0 0 - - - 0;
#X text 319 93 harmo;
#X obj 223 161 *~;
#X obj 307 223 *~;
#X text 188 41 FM 2;
#X obj 237 254 *~;
#X text 362 91 chiffre bas;
#X text 438 182 chiffre bas;
#X obj 145 33 inlet;
#X obj 285 56 inlet;
#X obj 326 181 inlet~;
#X connect 1 0 0 0;
#X connect 2 0 4 0;
#X connect 2 0 9 0;
#X connect 3 0 12 0;
#X connect 4 0 1 0;
#X connect 7 0 9 1;
#X connect 9 0 3 0;
#X connect 9 0 10 0;
#X connect 10 0 12 1;
#X connect 12 0 4 1;
#X connect 15 0 2 0;
#X connect 16 0 7 0;
#X connect 17 0 10 1;
#X restore 355 255 pd synthfm2;
#X floatatom 352 229 5 0 0 0 - - - 0;
#X text 348 210 freq;
#X obj 390 120 mtof;
#X obj 389 140 t f b;
#X floatatom 384 198 5 0 0 0 - - - 0;
#X text 422 200 harmo;
#X floatatom 535 175 5 0 0 0 - - - 0;
#N canvas 234 234 450 300 env 0;
#X obj 104 177 line~;
#X obj 116 54 bng 15 250 50 0 empty empty empty 17 7 0 10 #fcfcfc #000000
#000000;
#X obj 154 99 del 10;
#X obj 154 124 pack 0 500;
#X obj 104 202 *~;
#X obj 104 222 *~;
#X obj 116 34 inlet;
#X obj 215 58 inlet;
#X floatatom 215 79 5 0 0 0 - - - 0;
#X text 253 79 decay time;
#X obj 79 101 pack 1 3;
#X obj 104 244 outlet~;
#X connect 0 0 4 1;
#X connect 0 0 4 0;
#X connect 1 0 2 0;
#X connect 1 0 10 0;
#X connect 2 0 3 0;
#X connect 3 0 0 0;
#X connect 4 0 5 0;
#X connect 4 0 5 1;
#X connect 5 0 11 0;
#X connect 6 0 1 0;
#X connect 7 0 8 0;
#X connect 8 0 3 1;
#X connect 10 0 0 0;
#X restore 430 296 pd env;
#X f 7;
#X floatatom 489 270 5 0 0 0 - - - 0;
#X obj 337 354 *~;
#X obj 439 231 *~;
#X floatatom 492 238 5 0 0 0 - - - 0;
#X text 527 236 mod index;
#X obj 298 66 inlet;
#X text 567 173 decay mod;
#X text 527 272 decay adsr;
#X obj 341 400 outlet~;
#X obj 534 95 r syfmharm;
#X obj 614 95 r syfmdecmod;
#X text 625 77 decay mod;
#X obj 706 97 r syfmmodind;
#X obj 800 95 r syfmdecadsr;
#X text 812 79 decay adsr;
#X text 532 77 harmo (bas);
#X text 701 78 mod index (bas);
#X connect 0 0 12 0;
#X connect 1 0 11 0;
#X connect 2 0 1 0;
#X connect 4 0 5 0;
#X connect 5 0 2 0;
#X connect 5 1 0 0;
#X connect 5 1 9 0;
#X connect 6 0 1 1;
#X connect 8 0 0 1;
#X connect 9 0 11 1;
#X connect 10 0 9 1;
#X connect 11 0 18 0;
#X connect 12 0 1 2;
#X connect 13 0 12 1;
#X connect 15 0 4 0;
#X connect 19 0 6 0;
#X connect 20 0 8 0;
#X connect 22 0 13 0;
#X connect 23 0 10 0;
